<mxfile host="app.diagrams.net" modified="2024-05-11T16:25:06.963Z" agent="Mozilla/5.0 (Windows NT 10.0; Win64; x64) AppleWebKit/537.36 (KHTML, like Gecko) Chrome/124.0.0.0 Safari/537.36" etag="XOv-EdxXaLRkpuuFXJ3q" version="24.4.0" type="github">
  <diagram id="R2lEEEUBdFMjLlhIrx00" name="Page-1">
    <mxGraphModel dx="2607" dy="1404" grid="1" gridSize="10" guides="1" tooltips="1" connect="1" arrows="1" fold="1" page="1" pageScale="1" pageWidth="850" pageHeight="1100" math="0" shadow="0" extFonts="Permanent Marker^https://fonts.googleapis.com/css?family=Permanent+Marker">
      <root>
        <mxCell id="0" />
        <mxCell id="1" parent="0" />
        <mxCell id="BXfX2sPfwJoqlkLl3I13-1" value="Subcription" style="rounded=0;whiteSpace=wrap;html=1;fillColor=#dae8fc;strokeColor=#6c8ebf;" vertex="1" parent="1">
          <mxGeometry x="80" y="90" width="120" height="40" as="geometry" />
        </mxCell>
        <mxCell id="BXfX2sPfwJoqlkLl3I13-2" value="Account" style="rounded=0;whiteSpace=wrap;html=1;fillColor=#f8cecc;strokeColor=#b85450;" vertex="1" parent="1">
          <mxGeometry x="540" y="210" width="120" height="40" as="geometry" />
        </mxCell>
        <mxCell id="BXfX2sPfwJoqlkLl3I13-3" value="Profile" style="whiteSpace=wrap;html=1;fillColor=#d5e8d4;strokeColor=#82b366;" vertex="1" parent="1">
          <mxGeometry x="940" y="160" width="120" height="40" as="geometry" />
        </mxCell>
        <mxCell id="BXfX2sPfwJoqlkLl3I13-4" value="Preferences" style="whiteSpace=wrap;html=1;fillColor=#ffe6cc;strokeColor=#d79b00;" vertex="1" parent="1">
          <mxGeometry x="280" y="540" width="120" height="40" as="geometry" />
        </mxCell>
        <mxCell id="BXfX2sPfwJoqlkLl3I13-5" value="Title" style="whiteSpace=wrap;html=1;fillColor=#e1d5e7;strokeColor=#9673a6;" vertex="1" parent="1">
          <mxGeometry x="1360" y="290" width="120" height="40" as="geometry" />
        </mxCell>
        <mxCell id="BXfX2sPfwJoqlkLl3I13-6" value="Movie" style="whiteSpace=wrap;html=1;fillColor=#60a917;strokeColor=#2D7600;fontColor=#ffffff;" vertex="1" parent="1">
          <mxGeometry x="120" y="920" width="120" height="40" as="geometry" />
        </mxCell>
        <mxCell id="BXfX2sPfwJoqlkLl3I13-7" value="Series" style="whiteSpace=wrap;html=1;fillColor=#e51400;fontColor=#ffffff;strokeColor=#B20000;" vertex="1" parent="1">
          <mxGeometry x="120" y="855" width="120" height="40" as="geometry" />
        </mxCell>
        <mxCell id="BXfX2sPfwJoqlkLl3I13-8" value="&lt;u&gt;Subscription_id&lt;/u&gt;" style="ellipse;whiteSpace=wrap;html=1;" vertex="1" parent="1">
          <mxGeometry x="210" y="50" width="110" height="50" as="geometry" />
        </mxCell>
        <mxCell id="BXfX2sPfwJoqlkLl3I13-10" value="account_id" style="ellipse;whiteSpace=wrap;html=1;" vertex="1" parent="1">
          <mxGeometry x="210" y="140" width="110" height="50" as="geometry" />
        </mxCell>
        <mxCell id="BXfX2sPfwJoqlkLl3I13-11" value="subscription_type" style="ellipse;whiteSpace=wrap;html=1;" vertex="1" parent="1">
          <mxGeometry x="85" y="150" width="110" height="50" as="geometry" />
        </mxCell>
        <mxCell id="BXfX2sPfwJoqlkLl3I13-12" value="&lt;u&gt;account_id&lt;/u&gt;" style="ellipse;whiteSpace=wrap;html=1;" vertex="1" parent="1">
          <mxGeometry x="535" y="120" width="110" height="50" as="geometry" />
        </mxCell>
        <mxCell id="BXfX2sPfwJoqlkLl3I13-13" value="" style="ellipse;whiteSpace=wrap;html=1;" vertex="1" parent="1">
          <mxGeometry x="650" y="110" width="110" height="50" as="geometry" />
        </mxCell>
        <mxCell id="BXfX2sPfwJoqlkLl3I13-14" value="name" style="ellipse;whiteSpace=wrap;html=1;" vertex="1" parent="1">
          <mxGeometry x="655" y="115" width="100" height="40" as="geometry" />
        </mxCell>
        <mxCell id="BXfX2sPfwJoqlkLl3I13-15" value="notif_pref" style="ellipse;whiteSpace=wrap;html=1;" vertex="1" parent="1">
          <mxGeometry x="675" y="190" width="110" height="50" as="geometry" />
        </mxCell>
        <mxCell id="BXfX2sPfwJoqlkLl3I13-16" value="password" style="ellipse;whiteSpace=wrap;html=1;" vertex="1" parent="1">
          <mxGeometry x="665" y="260" width="110" height="50" as="geometry" />
        </mxCell>
        <mxCell id="BXfX2sPfwJoqlkLl3I13-17" value="email&lt;span style=&quot;color: rgba(0, 0, 0, 0); font-family: monospace; font-size: 0px; text-align: start; text-wrap: nowrap;&quot;&gt;%3CmxGraphModel%3E%3Croot%3E%3CmxCell%20id%3D%220%22%2F%3E%3CmxCell%20id%3D%221%22%20parent%3D%220%22%2F%3E%3CmxCell%20id%3D%222%22%20value%3D%22user_id%22%20style%3D%22ellipse%3BwhiteSpace%3Dwrap%3Bhtml%3D1%3B%22%20vertex%3D%221%22%20parent%3D%221%22%3E%3CmxGeometry%20x%3D%22300%22%20y%3D%22500%22%20width%3D%22110%22%20height%3D%2250%22%20as%3D%22geometry%22%2F%3E%3C%2FmxCell%3E%3C%2Froot%3E%3C%2FmxGraphModel%3E&lt;/span&gt;&lt;span style=&quot;color: rgba(0, 0, 0, 0); font-family: monospace; font-size: 0px; text-align: start; text-wrap: nowrap;&quot;&gt;%3CmxGraphModel%3E%3Croot%3E%3CmxCell%20id%3D%220%22%2F%3E%3CmxCell%20id%3D%221%22%20parent%3D%220%22%2F%3E%3CmxCell%20id%3D%222%22%20value%3D%22user_id%22%20style%3D%22ellipse%3BwhiteSpace%3Dwrap%3Bhtml%3D1%3B%22%20vertex%3D%221%22%20parent%3D%221%22%3E%3CmxGeometry%20x%3D%22300%22%20y%3D%22500%22%20width%3D%22110%22%20height%3D%2250%22%20as%3D%22geometry%22%2F%3E%3C%2FmxCell%3E%3C%2Froot%3E%3C%2FmxGraphModel%3E&lt;/span&gt;" style="ellipse;whiteSpace=wrap;html=1;" vertex="1" parent="1">
          <mxGeometry x="545" y="300" width="110" height="50" as="geometry" />
        </mxCell>
        <mxCell id="BXfX2sPfwJoqlkLl3I13-18" value="phone" style="ellipse;whiteSpace=wrap;html=1;" vertex="1" parent="1">
          <mxGeometry x="425" y="280" width="110" height="50" as="geometry" />
        </mxCell>
        <mxCell id="BXfX2sPfwJoqlkLl3I13-19" value="subscription_id" style="ellipse;whiteSpace=wrap;html=1;" vertex="1" parent="1">
          <mxGeometry x="425" y="205" width="110" height="50" as="geometry" />
        </mxCell>
        <mxCell id="BXfX2sPfwJoqlkLl3I13-20" value="fname" style="ellipse;whiteSpace=wrap;html=1;" vertex="1" parent="1">
          <mxGeometry x="585" y="30" width="110" height="50" as="geometry" />
        </mxCell>
        <mxCell id="BXfX2sPfwJoqlkLl3I13-21" value="sname" style="ellipse;whiteSpace=wrap;html=1;" vertex="1" parent="1">
          <mxGeometry x="715" y="40" width="110" height="50" as="geometry" />
        </mxCell>
        <mxCell id="BXfX2sPfwJoqlkLl3I13-22" value="account_id" style="ellipse;whiteSpace=wrap;html=1;" vertex="1" parent="1">
          <mxGeometry x="1055" y="95" width="110" height="50" as="geometry" />
        </mxCell>
        <mxCell id="BXfX2sPfwJoqlkLl3I13-23" value="&lt;u&gt;profile_id&lt;/u&gt;" style="ellipse;whiteSpace=wrap;html=1;" vertex="1" parent="1">
          <mxGeometry x="1080" y="155" width="110" height="50" as="geometry" />
        </mxCell>
        <mxCell id="BXfX2sPfwJoqlkLl3I13-25" value="profile_icon" style="ellipse;whiteSpace=wrap;html=1;" vertex="1" parent="1">
          <mxGeometry x="940" y="225" width="110" height="50" as="geometry" />
        </mxCell>
        <mxCell id="BXfX2sPfwJoqlkLl3I13-26" value="profile_age" style="ellipse;whiteSpace=wrap;html=1;" vertex="1" parent="1">
          <mxGeometry x="920" y="75" width="110" height="50" as="geometry" />
        </mxCell>
        <mxCell id="BXfX2sPfwJoqlkLl3I13-27" value="&lt;u&gt;title_id&lt;/u&gt;" style="ellipse;whiteSpace=wrap;html=1;" vertex="1" parent="1">
          <mxGeometry x="1510" y="225" width="110" height="50" as="geometry" />
        </mxCell>
        <mxCell id="BXfX2sPfwJoqlkLl3I13-28" value="title_name" style="ellipse;whiteSpace=wrap;html=1;" vertex="1" parent="1">
          <mxGeometry x="1520" y="290" width="110" height="50" as="geometry" />
        </mxCell>
        <mxCell id="BXfX2sPfwJoqlkLl3I13-29" value="genre" style="ellipse;whiteSpace=wrap;html=1;" vertex="1" parent="1">
          <mxGeometry x="1380" y="220" width="110" height="50" as="geometry" />
        </mxCell>
        <mxCell id="BXfX2sPfwJoqlkLl3I13-30" value="studio" style="ellipse;whiteSpace=wrap;html=1;" vertex="1" parent="1">
          <mxGeometry x="1430" y="350" width="110" height="50" as="geometry" />
        </mxCell>
        <mxCell id="BXfX2sPfwJoqlkLl3I13-31" value="language" style="ellipse;whiteSpace=wrap;html=1;" vertex="1" parent="1">
          <mxGeometry x="1550" y="350" width="110" height="50" as="geometry" />
        </mxCell>
        <mxCell id="BXfX2sPfwJoqlkLl3I13-32" value="pg_rating" style="ellipse;whiteSpace=wrap;html=1;" vertex="1" parent="1">
          <mxGeometry x="1310" y="390" width="110" height="50" as="geometry" />
        </mxCell>
        <mxCell id="BXfX2sPfwJoqlkLl3I13-33" value="image" style="ellipse;whiteSpace=wrap;html=1;" vertex="1" parent="1">
          <mxGeometry x="1250" y="250" width="110" height="50" as="geometry" />
        </mxCell>
        <mxCell id="BXfX2sPfwJoqlkLl3I13-34" value="description" style="ellipse;whiteSpace=wrap;html=1;" vertex="1" parent="1">
          <mxGeometry x="1270" y="170" width="110" height="50" as="geometry" />
        </mxCell>
        <mxCell id="BXfX2sPfwJoqlkLl3I13-35" value="rating" style="ellipse;whiteSpace=wrap;html=1;" vertex="1" parent="1">
          <mxGeometry x="1190" y="360" width="110" height="50" as="geometry" />
        </mxCell>
        <mxCell id="BXfX2sPfwJoqlkLl3I13-36" value="release_date" style="ellipse;whiteSpace=wrap;html=1;" vertex="1" parent="1">
          <mxGeometry x="1420" y="145" width="110" height="50" as="geometry" />
        </mxCell>
        <mxCell id="BXfX2sPfwJoqlkLl3I13-37" value="title_type" style="ellipse;whiteSpace=wrap;html=1;" vertex="1" parent="1">
          <mxGeometry x="1540" y="150" width="110" height="50" as="geometry" />
        </mxCell>
        <mxCell id="BXfX2sPfwJoqlkLl3I13-38" value="profile_id" style="ellipse;whiteSpace=wrap;html=1;" vertex="1" parent="1">
          <mxGeometry x="140" y="510" width="110" height="50" as="geometry" />
        </mxCell>
        <mxCell id="BXfX2sPfwJoqlkLl3I13-39" value="&lt;u&gt;pref_id&lt;/u&gt;" style="ellipse;whiteSpace=wrap;html=1;" vertex="1" parent="1">
          <mxGeometry x="420" y="480" width="110" height="50" as="geometry" />
        </mxCell>
        <mxCell id="BXfX2sPfwJoqlkLl3I13-40" value="title_id" style="ellipse;whiteSpace=wrap;html=1;" vertex="1" parent="1">
          <mxGeometry x="425" y="580" width="110" height="50" as="geometry" />
        </mxCell>
        <mxCell id="BXfX2sPfwJoqlkLl3I13-41" value="Credits" style="whiteSpace=wrap;html=1;fillColor=#b0e3e6;strokeColor=#0e8088;" vertex="1" parent="1">
          <mxGeometry x="1240" y="730" width="120" height="40" as="geometry" />
        </mxCell>
        <mxCell id="BXfX2sPfwJoqlkLl3I13-42" value="&lt;u&gt;credit_id&lt;/u&gt;" style="ellipse;whiteSpace=wrap;html=1;" vertex="1" parent="1">
          <mxGeometry x="1230" y="630" width="110" height="50" as="geometry" />
        </mxCell>
        <mxCell id="BXfX2sPfwJoqlkLl3I13-43" value="title_id" style="ellipse;whiteSpace=wrap;html=1;" vertex="1" parent="1">
          <mxGeometry x="1380" y="640" width="110" height="50" as="geometry" />
        </mxCell>
        <mxCell id="BXfX2sPfwJoqlkLl3I13-44" value="biography" style="ellipse;whiteSpace=wrap;html=1;" vertex="1" parent="1">
          <mxGeometry x="1420" y="710" width="110" height="50" as="geometry" />
        </mxCell>
        <mxCell id="BXfX2sPfwJoqlkLl3I13-45" value="Role" style="ellipse;whiteSpace=wrap;html=1;" vertex="1" parent="1">
          <mxGeometry x="1340" y="800" width="110" height="50" as="geometry" />
        </mxCell>
        <mxCell id="BXfX2sPfwJoqlkLl3I13-46" value="DOB" style="ellipse;whiteSpace=wrap;html=1;" vertex="1" parent="1">
          <mxGeometry x="1470" y="790" width="110" height="50" as="geometry" />
        </mxCell>
        <mxCell id="BXfX2sPfwJoqlkLl3I13-51" value="" style="ellipse;whiteSpace=wrap;html=1;" vertex="1" parent="1">
          <mxGeometry x="1100" y="740" width="110" height="50" as="geometry" />
        </mxCell>
        <mxCell id="BXfX2sPfwJoqlkLl3I13-52" value="name" style="ellipse;whiteSpace=wrap;html=1;" vertex="1" parent="1">
          <mxGeometry x="1105" y="745" width="100" height="40" as="geometry" />
        </mxCell>
        <mxCell id="BXfX2sPfwJoqlkLl3I13-53" value="fname" style="ellipse;whiteSpace=wrap;html=1;" vertex="1" parent="1">
          <mxGeometry x="1080" y="810" width="110" height="50" as="geometry" />
        </mxCell>
        <mxCell id="BXfX2sPfwJoqlkLl3I13-54" value="sname" style="ellipse;whiteSpace=wrap;html=1;" vertex="1" parent="1">
          <mxGeometry x="1060" y="670" width="110" height="50" as="geometry" />
        </mxCell>
        <mxCell id="BXfX2sPfwJoqlkLl3I13-55" value="Review" style="whiteSpace=wrap;html=1;fillColor=#d2e63d;strokeColor=#56517e;" vertex="1" parent="1">
          <mxGeometry x="665" y="750" width="120" height="40" as="geometry" />
        </mxCell>
        <mxCell id="BXfX2sPfwJoqlkLl3I13-56" value="&lt;u&gt;review_id&lt;/u&gt;" style="ellipse;whiteSpace=wrap;html=1;" vertex="1" parent="1">
          <mxGeometry x="695" y="660" width="110" height="50" as="geometry" />
        </mxCell>
        <mxCell id="BXfX2sPfwJoqlkLl3I13-57" value="timestamp" style="ellipse;whiteSpace=wrap;html=1;" vertex="1" parent="1">
          <mxGeometry x="810" y="735" width="110" height="50" as="geometry" />
        </mxCell>
        <mxCell id="BXfX2sPfwJoqlkLl3I13-58" value="profile_id" style="ellipse;whiteSpace=wrap;html=1;" vertex="1" parent="1">
          <mxGeometry x="775" y="810" width="110" height="50" as="geometry" />
        </mxCell>
        <mxCell id="BXfX2sPfwJoqlkLl3I13-59" value="title_id" style="ellipse;whiteSpace=wrap;html=1;" vertex="1" parent="1">
          <mxGeometry x="630" y="850" width="110" height="50" as="geometry" />
        </mxCell>
        <mxCell id="BXfX2sPfwJoqlkLl3I13-60" value="text" style="ellipse;whiteSpace=wrap;html=1;" vertex="1" parent="1">
          <mxGeometry x="530" y="785" width="110" height="50" as="geometry" />
        </mxCell>
        <mxCell id="BXfX2sPfwJoqlkLl3I13-61" value="rating" style="ellipse;whiteSpace=wrap;html=1;" vertex="1" parent="1">
          <mxGeometry x="545" y="710" width="110" height="50" as="geometry" />
        </mxCell>
        <mxCell id="BXfX2sPfwJoqlkLl3I13-62" value="Category?" style="whiteSpace=wrap;html=1;fillColor=#6a00ff;fontColor=#ffffff;strokeColor=#3700CC;" vertex="1" parent="1">
          <mxGeometry x="120" y="990" width="120" height="40" as="geometry" />
        </mxCell>
      </root>
    </mxGraphModel>
  </diagram>
</mxfile>
